<?xml version="1.0" encoding="UTF-8"?>
<svg width="20px" height="20px" viewBox="0 0 20 20" version="1.1" xmlns="http://www.w3.org/2000/svg" xmlns:xlink="http://www.w3.org/1999/xlink">
    <!-- Generator: Sketch 50.2 (55047) - http://www.bohemiancoding.com/sketch -->
    <title>Help</title>
    <desc>Created with Sketch.</desc>
    <defs>
        <path d="M14,21 L16,21 L16,19 L14,19 L14,21 L14,21 Z M15,5 C9.48,5 5,9.48 5,15 C5,20.52 9.48,25 15,25 C20.52,25 25,20.52 25,15 C25,9.48 20.52,5 15,5 L15,5 Z M15,23 C10.59,23 7,19.41 7,15 C7,10.59 10.59,7 15,7 C19.41,7 23,10.59 23,15 C23,19.41 19.41,23 15,23 L15,23 Z M15,9 C12.79,9 11,10.79 11,13 L13,13 C13,11.9 13.9,11 15,11 C16.1,11 17,11.9 17,13 C17,15 14,14.75 14,18 L16,18 C16,15.75 19,15.5 19,13 C19,10.79 17.21,9 15,9 L15,9 Z" id="path-1"></path>
    </defs>
    <g id="Page-1" stroke="none" stroke-width="1" fill="none" fill-rule="evenodd">
        <g id="ui-kit" transform="translate(-2923.000000, -1380.000000)">
            <g id="cell" transform="translate(1592.000000, 1341.000000)">
                <g id="3.-Icons/ic_help_outline" transform="translate(1326.000000, 34.000000)">
                    <mask id="mask-2" fill="white">
                        <use xlink:href="#path-1"></use>
                    </mask>
                    <use id="Icon" fill="#9A9A9A" fill-rule="evenodd" xlink:href="#path-1"></use>
                </g>
            </g>
        </g>
    </g>
</svg>