<svg width="33" height="36" xmlns="http://www.w3.org/2000/svg"><path d="M31.725 8.833a.773.773 0 0 1-.547-.225l-3.095-3.072a.762.762 0 0 1 0-1.085c.302-.3.791-.3 1.094 0l3.095 3.072c.302.3.302.786 0 1.085a.772.772 0 0 1-.547.225zm-9.75-7.298H11.769a.77.77 0 0 1-.773-.768c0-.423.347-.767.773-.767h10.206a.77.77 0 0 1 .773.767.77.77 0 0 1-.773.768zm11.007 17.78c0 8.815-7.226 15.987-16.109 15.987C7.989 35.302.761 28.13.761 19.314.761 10.5 7.99 3.326 16.873 3.326s16.11 7.173 16.11 15.988zm-30.674 0c0 7.97 6.534 14.452 14.565 14.452 8.03 0 14.563-6.483 14.563-14.453S24.903 4.861 16.873 4.861c-8.03 0-14.565 6.483-14.565 14.453zm15.337-9.671v8.903h4.932a.77.77 0 0 1 .773.767.771.771 0 0 1-.773.768l-5.659-.001c-.007 0-.014-.004-.022-.004-.008 0-.015.005-.024.005a.77.77 0 0 1-.773-.768v-9.67a.77.77 0 0 1 .773-.768.77.77 0 0 1 .773.768z" fill="#FF4D00" fill-rule="evenodd"/></svg>