<svg width="30" height="9" xmlns="http://www.w3.org/2000/svg"><path d="M22.907 1.912c.055.658-.216 1.511-.84 2.101-.433.4-1.084.725-2.032.759a2.846 2.846 0 0 1-.854-.095 2.799 2.799 0 0 1-1.166-.65c-.338-.332-.542-.705-.582-1.071-.082-.556.149-1.125.69-1.613.11-.095.041-.217-.162-.27L14.817.035a.72.72 0 0 0-.447 0l-3.144 1.036c-.19.061-.258.176-.15.271.543.488.773 1.057.692 1.613-.054.366-.244.739-.583 1.07-.27.251-.65.509-1.165.651a2.897 2.897 0 0 1-.854.095c-.949-.034-1.599-.36-2.033-.759-.623-.59-.894-1.443-.84-2.1 0-.122-.149-.217-.406-.217H.425c-.04 0-.095 0-.135.006-.217.034-.339.15-.271.258L4.45 8.83v.014c.04.088.217.156.407.156h19.487c.19 0 .366-.068.407-.156v-.013l4.417-6.871c.082-.109-.04-.224-.257-.258-.054-.006-.095-.006-.163-.006h-5.434c-.257 0-.407.095-.407.216z" fill="#FF4D00" fill-rule="evenodd"/></svg>