<svg width="17" height="14" xmlns="http://www.w3.org/2000/svg"><g fill="none" fill-rule="evenodd"><path d="M12.016 2.692A2.327 2.327 0 0 0 9.766 1H7.234a2.327 2.327 0 0 0-2.25 1.692H2.082C1.484 2.692 1 3.17 1 3.757v8.178C1 12.523 1.484 13 2.082 13h12.836c.598 0 1.082-.477 1.082-1.065V3.757c0-.588-.484-1.065-1.082-1.065h-2.902z" stroke="#9A9A9A" stroke-linecap="round" stroke-linejoin="round"/><path d="M11 7.5a2.5 2.5 0 1 1-5 0 2.5 2.5 0 0 1 5 0z" stroke="#9A9A9A" stroke-linecap="round" stroke-linejoin="round"/><path d="M14 5.5a.5.5 0 1 1-1 0 .5.5 0 0 1 1 0" fill="#9A9A9A"/></g></svg>