<svg width="14" height="17" xmlns="http://www.w3.org/2000/svg"><path d="M.504 4.186c.062 3.762.785 6.555 2.192 8.552.874 1.231 1.886 2.092 3.59 3.208l.625.404.089.057.087-.056c.324-.208.454-.292.626-.405 1.705-1.116 2.717-1.977 3.59-3.206 1.409-1.999 2.13-4.792 2.193-8.554A27.173 27.173 0 0 1 7 .626a27.159 27.159 0 0 1-6.496 3.56zm9.613 1.998c.4.407.4 1.062 0 1.469l-3.119 3.163a1.034 1.034 0 0 1-.735.308h-.03a1.035 1.035 0 0 1-.749-.352L3.842 8.894a1.05 1.05 0 0 1-.207-1.02 1.036 1.036 0 0 1 1.767-.362l.898 1.04 2.335-2.364a1.033 1.033 0 0 1 1.482-.004z" stroke="#979797" fill="none"/></svg>