<svg width="39" height="20" xmlns="http://www.w3.org/2000/svg"><path d="M15.722 19.559h18.715A3.576 3.576 0 0 0 38 15.996V4.563A3.576 3.576 0 0 0 34.437 1H15.722a3.576 3.576 0 0 0-3.563 3.563v11.433c.039 1.957 1.605 3.563 3.563 3.563zM13.138 4.563a2.582 2.582 0 0 1 2.584-2.584h18.715a2.582 2.582 0 0 1 2.584 2.584v11.433a2.582 2.582 0 0 1-2.584 2.584H15.722a2.582 2.582 0 0 1-2.584-2.584V4.563zm2.819 10.65l5.99-5.286-5.951-4.62a.489.489 0 0 1-.079-.666.489.489 0 0 1 .666-.078l8.536 6.617 8.496-6.656a.489.489 0 0 1 .665.078.489.489 0 0 1-.078.666l-5.873 4.62 5.951 5.325c.196.195.196.47.04.665-.079.118-.235.157-.353.157a.445.445 0 0 1-.313-.118l-6.108-5.442-2.153 1.684a.423.423 0 0 1-.274.117.423.423 0 0 1-.275-.117l-2.075-1.606-6.186 5.364a.445.445 0 0 1-.313.118c-.118 0-.274-.04-.353-.157-.156-.195-.156-.509.04-.665zm-5.678-4.934c0 .274-.195.47-.47.47H4.29a.452.452 0 0 1-.47-.47c0-.274.196-.47.47-.47h5.52c.235 0 .47.196.47.47zM1 6.6c0-.274.196-.47.47-.47h8.3c.274 0 .47.196.47.47 0 .274-.196.47-.47.47H1.51c-.275.038-.51-.197-.51-.471zm9.28 7.36c0 .275-.196.47-.47.47H6.168a.452.452 0 0 1-.47-.47c0-.273.196-.47.47-.47H9.81c.234-.038.47.197.47.47z" fill="#FFF" stroke="#FFF" stroke-width=".5"/></svg>