<?xml version="1.0" encoding="UTF-8"?>
<svg width="33px" height="36px" viewBox="0 0 33 36" version="1.1" xmlns="http://www.w3.org/2000/svg" xmlns:xlink="http://www.w3.org/1999/xlink">
    <!-- Generator: Sketch 50.2 (55047) - http://www.bohemiancoding.com/sketch -->
    <title>Shape</title>
    <desc>Created with Sketch.</desc>
    <defs></defs>
    <g id="Page-1" stroke="none" stroke-width="1" fill="none" fill-rule="evenodd">
        <g id="ui-kit" transform="translate(-2544.000000, -1372.000000)" fill="#FF4D00">
            <g id="cell" transform="translate(1592.000000, 1341.000000)">
                <g id="Group-15" transform="translate(676.000000, 31.000000)">
                    <g id="Timer-2" transform="translate(276.000000, 0.000000)">
                        <path d="M31.7252791,8.83325581 C31.5272791,8.83325581 31.3292791,8.75881395 31.178093,8.60839535 L28.083,5.53632558 C27.7806279,5.23625581 27.7806279,4.75046512 28.083,4.45116279 C28.3846047,4.15109302 28.8742326,4.15109302 29.1766047,4.45116279 L32.2716977,7.52323256 C32.5740698,7.82330233 32.5740698,8.30909302 32.2716977,8.60839535 C32.1205116,8.75881395 31.9225116,8.83325581 31.7252791,8.83325581 L31.7252791,8.83325581 Z M21.9749302,1.53488372 L11.7694884,1.53488372 C11.3420233,1.53488372 10.995907,1.19106977 10.995907,0.76744186 C10.995907,0.343813953 11.3427907,0 11.7694884,0 L21.9749302,0 C22.4023953,0 22.7477442,0.343813953 22.7477442,0.76744186 C22.7477442,1.19183721 22.4016279,1.53488372 21.9749302,1.53488372 L21.9749302,1.53488372 Z M32.9823488,19.3142093 C32.9823488,28.129814 25.7561163,35.3023256 16.8729767,35.3023256 C7.98906977,35.3023256 0.761302326,28.129814 0.761302326,19.3142093 C0.761302326,10.4986047 7.98906977,3.32609302 16.8729767,3.32609302 C25.7561163,3.32609302 32.9823488,10.4986047 32.9823488,19.3142093 L32.9823488,19.3142093 Z M2.30846512,19.3142093 C2.30846512,27.284093 8.84246512,33.7674419 16.8729767,33.7674419 C24.9027209,33.7674419 31.4359535,27.284093 31.4359535,19.3142093 C31.4359535,11.3443256 24.9027209,4.86097674 16.8729767,4.86097674 C8.84246512,4.86097674 2.30846512,11.3443256 2.30846512,19.3142093 L2.30846512,19.3142093 Z M17.6450233,9.64367442 L17.6450233,18.5467674 L22.5766047,18.5467674 C23.0040698,18.5467674 23.350186,18.8905814 23.350186,19.3142093 C23.350186,19.7378372 23.0033023,20.0816512 22.5766047,20.0816512 L16.9182558,20.0808837 C16.9105814,20.0808837 16.9036744,20.0770465 16.896,20.0770465 C16.8875581,20.0770465 16.8806512,20.0816512 16.8722093,20.0816512 C16.4447442,20.0816512 16.0986279,19.7378372 16.0986279,19.3142093 L16.0986279,9.64367442 C16.0986279,9.22004651 16.4447442,8.87623256 16.8722093,8.87623256 C17.2996744,8.87623256 17.6450233,9.22004651 17.6450233,9.64367442 L17.6450233,9.64367442 Z" id="Shape"></path>
                    </g>
                </g>
            </g>
        </g>
    </g>
</svg>