<?xml version="1.0" encoding="UTF-8"?>
<svg width="30px" height="9px" viewBox="0 0 30 9" version="1.1" xmlns="http://www.w3.org/2000/svg" xmlns:xlink="http://www.w3.org/1999/xlink">
    <!-- Generator: Sketch 50.2 (55047) - http://www.bohemiancoding.com/sketch -->
    <title>Crown</title>
    <desc>Created with Sketch.</desc>
    <defs></defs>
    <g id="Page-1" stroke="none" stroke-width="1" fill="none" fill-rule="evenodd">
        <g id="avtolenta--rates" transform="translate(-1039.000000, -388.000000)" fill="#FF4D00">
            <g id="Pricelist-Card-Copy-2" transform="translate(910.000000, 352.000000)">
                <path d="M151.907493,37.9124788 C151.9617,38.5697346 151.690666,39.4234896 151.06729,40.012987 C150.633636,40.4127612 149.983156,40.7380011 149.03454,40.7718803 C148.722851,40.785432 148.438266,40.744777 148.180785,40.6770186 C147.665822,40.5347261 147.286375,40.2772445 147.015342,40.0265387 C146.67655,39.6945229 146.473275,39.3218521 146.43262,38.9559571 C146.35131,38.4003388 146.581688,37.8311688 147.123755,37.3433089 C147.232168,37.2484472 147.16441,37.1264822 146.961135,37.0722756 L143.817148,36.0355731 C143.695183,35.9881423 143.50546,35.9881423 143.369944,36.0355731 L140.225957,37.0722756 C140.036234,37.133258 139.968475,37.2484472 140.076889,37.3433089 C140.618955,37.8311688 140.849334,38.4003388 140.768024,38.9559571 C140.713817,39.3218521 140.524094,39.6945229 140.185302,40.0265387 C139.914269,40.2772445 139.534822,40.5347261 139.019859,40.6770186 C138.762377,40.744777 138.464241,40.785432 138.166104,40.7718803 C137.217487,40.7380011 136.567007,40.4127612 136.133354,40.012987 C135.509977,39.4234896 135.238944,38.5697346 135.293151,37.9124788 C135.293151,37.7905138 135.144082,37.6956522 134.886601,37.6956522 L129.425279,37.6956522 C129.384624,37.6956522 129.330418,37.6956522 129.289763,37.702428 C129.072936,37.7363072 128.950971,37.8514963 129.018729,37.9599097 L133.450124,44.8306042 L133.450124,44.8441558 C133.490779,44.9322417 133.666951,45 133.856674,45 L153.343969,45 C153.533693,45 153.709864,44.9322417 153.750519,44.8441558 L153.750519,44.8306042 L158.168362,37.9599097 C158.249672,37.8514963 158.127707,37.7363072 157.910881,37.702428 C157.856674,37.6956522 157.816019,37.6956522 157.748261,37.6956522 L152.314043,37.6956522 C152.056561,37.6956522 151.907493,37.7905138 151.907493,37.9124788 Z" id="Crown"></path>
            </g>
        </g>
    </g>
</svg>