<?xml version="1.0" encoding="UTF-8"?>
<svg width="17px" height="14px" viewBox="0 0 17 14" version="1.1" xmlns="http://www.w3.org/2000/svg" xmlns:xlink="http://www.w3.org/1999/xlink">
    <!-- Generator: Sketch 50.2 (55047) - http://www.bohemiancoding.com/sketch -->
    <title>Fotoaparat</title>
    <desc>Created with Sketch.</desc>
    <defs></defs>
    <g id="Page-1" stroke="none" stroke-width="1" fill="none" fill-rule="evenodd">
        <g id="avtolenta--main-" transform="translate(-998.000000, -1186.000000)">
            <g id="Fotoaparat" transform="translate(999.000000, 1187.000000)">
                <path d="M11.015625,1.69226331 C10.7388281,0.693013327 9.81726562,0 8.76515625,0 L6.23484375,0 C5.18296875,0 4.26140625,0.693013327 3.98460937,1.69226331 L1.08164063,1.69226331 C0.48421875,1.69226331 0,2.16904171 0,2.75728379 L0,10.9349795 C0,11.5232216 0.48421875,12 1.08164063,12 L13.9183594,12 C14.5157812,12 15,11.5232216 15,10.9349795 L15,2.75728379 C15,2.16904171 14.5157812,1.69226331 13.9183594,1.69226331 L11.015625,1.69226331 Z" id="Stroke-975" stroke="#9A9A9A" stroke-linecap="round" stroke-linejoin="round"></path>
                <path d="M10,6.5 C10,7.8805 8.88075,9 7.5,9 C6.1195,9 5,7.8805 5,6.5 C5,5.1195 6.1195,4 7.5,4 C8.88075,4 10,5.1195 10,6.5 Z" id="Stroke-976" stroke="#9A9A9A" stroke-linecap="round" stroke-linejoin="round"></path>
                <path d="M13,4.5 C13,4.77616667 12.7761667,5 12.5,5 C12.224,5 12,4.77616667 12,4.5 C12,4.22383333 12.224,4 12.5,4 C12.7761667,4 13,4.22383333 13,4.5" id="Fill-977" fill="#9A9A9A"></path>
            </g>
        </g>
    </g>
</svg>