<?xml version="1.0" encoding="UTF-8"?>
<svg width="14px" height="17px" viewBox="0 0 14 17" version="1.1" xmlns="http://www.w3.org/2000/svg" xmlns:xlink="http://www.w3.org/1999/xlink">
    <!-- Generator: Sketch 50.2 (55047) - http://www.bohemiancoding.com/sketch -->
    <title>Protection</title>
    <desc>Created with Sketch.</desc>
    <defs></defs>
    <g id="Page-1" stroke="none" stroke-width="1" fill="none" fill-rule="evenodd">
        <g id="avtolenta--main-" transform="translate(-1119.000000, -1184.000000)" fill-rule="nonzero" stroke="#979797">
            <path d="M1119.50387,1188.18558 C1119.5663,1191.94806 1120.28852,1194.74095 1121.69568,1196.73811 C1122.56974,1197.96897 1123.58175,1198.83031 1125.2866,1199.94611 C1125.45908,1200.05899 1125.5887,1200.14275 1125.91112,1200.35023 L1126,1200.40693 L1126.08721,1200.3513 C1126.4113,1200.14275 1126.54092,1200.05899 1126.7134,1199.94611 C1128.41825,1198.83031 1129.43026,1197.96897 1130.3033,1196.73954 C1131.7119,1194.74102 1132.43371,1191.94791 1132.49613,1188.18555 C1130.18126,1187.30257 1127.99586,1186.10492 1126.00002,1184.62561 C1124.00427,1186.10509 1121.81883,1187.30276 1119.50387,1188.18558 Z M1129.11729,1190.18366 C1129.51756,1190.59059 1129.51722,1191.24637 1129.11634,1191.65279 L1125.99819,1194.81558 C1125.80396,1195.0125 1125.53958,1195.12362 1125.26297,1195.12387 L1125.23388,1195.1237 C1124.94678,1195.11624 1124.67594,1194.98928 1124.48404,1194.77182 L1122.84249,1192.89416 C1122.59784,1192.61547 1122.51888,1192.22716 1122.63454,1191.87442 C1122.7507,1191.52014 1123.04599,1191.25435 1123.41011,1191.17845 C1123.77531,1191.10231 1124.15256,1191.22914 1124.40157,1191.51283 L1125.29999,1192.5525 L1127.63497,1190.1882 C1127.8294,1189.98687 1128.09646,1189.87271 1128.3759,1189.87205 C1128.65487,1189.87139 1128.92201,1189.98389 1129.11729,1190.18366 Z" id="Protection"></path>
        </g>
    </g>
</svg>