<?xml version="1.0" encoding="UTF-8"?>
<svg width="15px" height="17px" viewBox="0 0 15 17" version="1.1" xmlns="http://www.w3.org/2000/svg" xmlns:xlink="http://www.w3.org/1999/xlink">
    <!-- Generator: Sketch 50.2 (55047) - http://www.bohemiancoding.com/sketch -->
    <title>Protection active</title>
    <desc>Created with Sketch.</desc>
    <defs></defs>
    <g id="Symbols" stroke="none" stroke-width="1" fill="none" fill-rule="evenodd">
        <g id="cell---time" transform="translate(-1102.000000, -40.000000)" fill="#B8E986" fill-rule="nonzero">
            <g id="cell">
                <g id="Checked" transform="translate(1102.000000, 40.000000)">
                    <path d="M3.52489008e-15,3.82435802 C0.023451252,7.83812999 0.775695258,10.8272627 2.30724241,12.9739542 C3.55376665,14.7075429 5.15386361,15.7213586 6.69803836,16.7027032 L7.05882685,16.93 L7.41961534,16.7027032 C8.96379009,15.7213586 10.5638871,14.7075429 11.8104113,12.9739542 C13.3437624,10.8254587 14.0942025,7.83452211 14.1176537,3.82435802 C11.5872846,2.90844532 9.20805001,1.61941455 7.05882685,0 C4.90972097,1.61959707 2.5304579,2.90864325 0,3.82435802 Z M9.84231007,6.50682046 C10.0533377,6.71811086 10.0533377,7.06040166 9.84231007,7.27169206 L6.69803836,10.4213756 C6.59664427,10.5228961 6.45908479,10.5799962 6.31560256,10.5801225 L6.29936708,10.5801225 C6.15016481,10.5762942 6.00916731,10.5110176 5.9097155,10.3997283 L4.25369632,8.52903996 C4.12479901,8.38403048 4.08305462,8.1812703 4.14418785,7.99713721 C4.20532109,7.81300412 4.36004436,7.67547233 4.5500749,7.63634872 C4.74010545,7.59722511 4.93657312,7.6624535 5.06547043,7.80746297 L6.32823015,9.25061694 L9.0702227,6.5086244 C9.17173329,6.40481741 9.31069795,6.34615263 9.45588809,6.3458134 C9.60107824,6.34547418 9.7403155,6.40348895 9.84231007,6.50682046 Z" id="Shape"></path>
                </g>
            </g>
        </g>
    </g>
</svg>