<?xml version="1.0" encoding="UTF-8"?>
<svg width="39px" height="20px" viewBox="0 0 39 20" version="1.1" xmlns="http://www.w3.org/2000/svg" xmlns:xlink="http://www.w3.org/1999/xlink">
    <!-- Generator: Sketch 50.2 (55047) - http://www.bohemiancoding.com/sketch -->
    <title>Shape</title>
    <desc>Created with Sketch.</desc>
    <defs></defs>
    <g id="Page-1" stroke="none" stroke-width="1" fill="none" fill-rule="evenodd">
        <g id="ui-kit" transform="translate(-2779.000000, -752.000000)" fill="#FFFFFF" fill-rule="nonzero" stroke="#FFFFFF" stroke-width="0.5">
            <g id="dropdown" transform="translate(2498.000000, 360.000000)">
                <g id="Group-4-Copy" transform="translate(20.000000, 241.000000)">
                    <g id="button" transform="translate(250.000000, 141.000000)">
                        <path d="M26.7216931,29.5587302 L45.437037,29.5587302 C47.394709,29.5587302 49,27.9534392 49,25.9957672 L49,14.562963 C49,12.605291 47.394709,11 45.437037,11 L26.7216931,11 C24.7640212,11 23.1587302,12.605291 23.1587302,14.562963 L23.1587302,25.9957672 C23.1978836,27.9534392 24.7640212,29.5587302 26.7216931,29.5587302 Z M24.1375661,14.562963 C24.1375661,13.1142857 25.3121693,11.978836 26.7216931,11.978836 L45.437037,11.978836 C46.8857143,11.978836 48.021164,13.1534392 48.021164,14.562963 L48.021164,25.9957672 C48.021164,27.4444444 46.8465608,28.5798942 45.437037,28.5798942 L34.8656085,28.5798942 L26.7216931,28.5798942 C25.2730159,28.5798942 24.1375661,27.405291 24.1375661,25.9957672 L24.1375661,14.562963 Z M26.9566138,25.2126984 L32.9470899,19.9269841 L26.9957672,15.3068783 C26.8,15.1502646 26.7608466,14.837037 26.9174603,14.6412698 C27.0740741,14.4455026 27.3873016,14.4063492 27.5830688,14.562963 L36.1185185,21.1798942 L44.6148148,14.5238095 C44.810582,14.3671958 45.1238095,14.4063492 45.2804233,14.6021164 C45.437037,14.7978836 45.3978836,15.1111111 45.2021164,15.2677249 L39.3291005,19.8878307 L45.2804233,25.2126984 C45.4761905,25.4084656 45.4761905,25.6825397 45.3195767,25.8783069 C45.2412698,25.9957672 45.0846561,26.0349206 44.9671958,26.0349206 C44.8497354,26.0349206 44.7322751,25.9957672 44.6539683,25.9174603 L38.5460317,20.4751323 L36.3925926,22.1587302 C36.3142857,22.237037 36.1968254,22.2761905 36.1185185,22.2761905 C36.0402116,22.2761905 35.9227513,22.237037 35.8444444,22.1587302 L33.7693122,20.5534392 L27.5830688,25.9174603 C27.5047619,25.9957672 27.3873016,26.0349206 27.2698413,26.0349206 C27.152381,26.0349206 26.9957672,25.9957672 26.9174603,25.8783069 C26.7608466,25.6825397 26.7608466,25.3693122 26.9566138,25.2126984 Z M21.2793651,20.2793651 C21.2793651,20.5534392 21.0835979,20.7492063 20.8095238,20.7492063 L15.2888889,20.7492063 C15.0148148,20.7492063 14.8190476,20.5534392 14.8190476,20.2793651 C14.8190476,20.005291 15.0148148,19.8095238 15.2888889,19.8095238 L20.8095238,19.8095238 C21.0444444,19.8095238 21.2793651,20.005291 21.2793651,20.2793651 Z M12,16.5989418 C12,16.3248677 12.1957672,16.1291005 12.4698413,16.1291005 L20.7703704,16.1291005 C21.0444444,16.1291005 21.2402116,16.3248677 21.2402116,16.5989418 C21.2402116,16.8730159 21.0444444,17.0687831 20.7703704,17.0687831 L12.5089947,17.0687831 C12.2349206,17.1079365 12,16.8730159 12,16.5989418 Z M21.2793651,23.9597884 C21.2793651,24.2338624 21.0835979,24.4296296 20.8095238,24.4296296 L17.168254,24.4296296 C16.8941799,24.4296296 16.6984127,24.2338624 16.6984127,23.9597884 C16.6984127,23.6857143 16.8941799,23.4899471 17.168254,23.4899471 L20.8095238,23.4899471 C21.0444444,23.4507937 21.2793651,23.6857143 21.2793651,23.9597884 Z" id="Shape"></path>
                    </g>
                </g>
            </g>
        </g>
    </g>
</svg>