<?xml version="1.0" encoding="UTF-8"?>
<svg width="25px" height="24px" viewBox="0 0 25 24" version="1.1" xmlns="http://www.w3.org/2000/svg" xmlns:xlink="http://www.w3.org/1999/xlink">
    <!-- Generator: Sketch 50.2 (55047) - http://www.bohemiancoding.com/sketch -->
    <title>star2</title>
    <desc>Created with Sketch.</desc>
    <defs></defs>
    <g id="Symbols" stroke="none" stroke-width="1" fill="none" fill-rule="evenodd">
        <g id="header" transform="translate(-855.000000, -28.000000)" fill="#FF4D00" fill-rule="nonzero" stroke="#FF4D00" stroke-width="0.5">
            <g id="star2">
                <path d="M873.504672,50.9662921 C873.216136,50.9662921 872.93547,50.8956862 872.673166,50.7597044 L867.820528,48.2178906 C867.623799,48.1159042 867.377232,48.1159042 867.183127,48.2178906 L862.330489,50.7597044 C861.588166,51.1467295 860.659608,50.955832 860.127129,50.3256086 C859.788756,49.9255083 859.644488,49.3972713 859.736295,48.8794944 L860.662231,43.5029829 C860.698953,43.2807049 860.625508,43.0531969 860.465502,42.8962948 L856.541423,39.0888042 C856.050913,38.6128678 855.877792,37.9120385 856.087636,37.2608949 C856.300102,36.6097512 856.853565,36.14689 857.530312,36.0475187 L862.952151,35.2630083 C863.17511,35.2316279 863.369216,35.090416 863.468892,34.8890583 L865.897834,29.9937132 C866.202107,29.3817951 866.8159,29 867.500516,29 C868.185131,29 868.798924,29.37918 869.103198,29.9937132 L871.529517,34.8890583 C871.629193,35.090416 871.823298,35.2316279 872.046257,35.2630083 L877.468097,36.0475187 C878.147466,36.14689 878.700929,36.6097512 878.910773,37.2608949 C879.12324,37.9120385 878.950119,38.6128678 878.456986,39.0888042 L874.538152,42.8962948 C874.375524,43.0531969 874.302078,43.2807049 874.341424,43.5029829 L875.264737,48.8794944 C875.35392,49.3998863 875.212276,49.9255083 874.873903,50.3256086 C874.530283,50.733554 874.031904,50.9662921 873.504672,50.9662921 Z M867.500516,47.0411249 C867.789051,47.0411249 868.077586,47.1117309 868.332022,47.2450976 L873.18466,49.7869114 C873.475818,49.9385835 873.827307,49.8601324 874.031904,49.6169342 C874.123711,49.5097178 874.223387,49.3240503 874.178795,49.0651619 L873.252859,43.6886503 C873.153018,43.1098872 873.345282,42.5192093 873.766976,42.1091693 L877.688433,38.3016787 C877.879915,38.1160112 877.945491,37.8545078 877.861554,37.6008494 C877.777616,37.347191 877.570396,37.1745987 877.308091,37.1353732 L871.886251,36.3508628 C871.303935,36.2671816 870.80031,35.9010768 870.538005,35.3754548 L868.111686,30.4801097 C867.993649,30.2421415 867.76282,30.0983146 867.49527,30.0983146 C867.227719,30.0983146 866.999514,30.2395265 866.878853,30.4801097 L864.452534,35.3754548 C864.19023,35.9010768 863.689228,36.2645666 863.106911,36.3508628 L857.690318,37.1327582 C857.42539,37.1719837 857.218169,37.344576 857.136855,37.5982343 C857.052917,37.8518927 857.118493,38.1133962 857.309976,38.2990637 L861.231432,42.1091693 C861.653743,42.5197298 861.845225,43.1081126 861.745549,43.6886503 L860.819613,49.0651619 C860.785514,49.2691346 860.837975,49.4652622 860.966504,49.6169342 C861.171102,49.8601324 861.52259,49.9385835 861.813748,49.7869114 L866.666387,47.2450976 C866.923445,47.1117309 867.21198,47.0411249 867.500516,47.0411249 Z"></path>
            </g>
        </g>
    </g>
</svg>